<svg height="512" viewBox="0 0 128 128" width="512" xmlns="http://www.w3.org/2000/svg"><g><path d="m53.75 85.321c-.667 8.166-2 27.333-2 27.333h-6.5c.667-10-3.833-27.333-3.833-27.333z" fill="#4575bb"/><circle cx="47.583" cy="90.321" fill="#c1c1c5" r="9.667"/><path d="m65.667 85.321c-.667 8.166-2 27.333-2 27.333h-6.5c.666-10-3.834-27.333-3.834-27.333z" fill="#5590e6"/><circle cx="59.5" cy="90.321" fill="#eaeaf0" r="9.667"/><path d="m90.167 85.321c-.667 8.166-2 27.333-2 27.333h-6.5c.666-10-3.834-27.333-3.834-27.333z" fill="#4575bb"/><circle cx="84" cy="90.321" fill="#c1c1c5" r="9.667"/><path d="m102.083 85.321c-.666 8.166-2 27.333-2 27.333h-6.5c.667-10-3.833-27.333-3.833-27.333z" fill="#5590e6"/><circle cx="95.917" cy="90.321" fill="#eaeaf0" r="9.667"/><path d="m113.75 74.21a12.643 12.643 0 0 1 .09 1.39c0 7.02-6.62 12.71-14.79 12.71a17 17 0 0 1 -4.01-.49 18 18 0 0 1 -13.43 5.7 18.4 18.4 0 0 1 -12.06-4.33 16.048 16.048 0 0 1 -10.13 3.47 15.236 15.236 0 0 1 -13.07-6.78 19.406 19.406 0 0 1 -5.34.75c-9.37 0-16.96-6.53-16.96-14.58 0-5 2.93-9.42 7.41-12.04a8.826 8.826 0 0 1 -1.03-4.12c0-4.5 3.41-8.31 8.12-9.64a20.971 20.971 0 0 1 34.93-14.45 19.232 19.232 0 0 1 4.97-.65c6.85 0 12.73 3.5 15.41 8.51.25-.01.49-.03.74-.03 9.36 0 16.96 6.53 16.96 14.58v.03c6.2.31 9.94 3.88 9.94 9.29 0 4.75-2.62 9.57-7.75 10.68z" fill="#5590e6"/><g fill="#4575bb"><path d="m105.178 53.712a1.751 1.751 0 0 1 -1.654-1.177c-1.052-3.035-4.709-5.154-8.891-5.154a1.75 1.75 0 0 1 0-3.5c5.649 0 10.665 3.087 12.2 7.508a1.751 1.751 0 0 1 -1.653 2.323z"/><path d="m24.392 37.612c-11.166-5.25-16.916-5.166-17.833-1.583s9.083 12.5 14.833 13.167z"/><path d="m49.559 37.612c11.167-5.25 16.917-5.166 17.833-1.583s-9.083 12.5-14.833 13.171z"/></g><ellipse cx="36.976" cy="49.196" fill="#eaeaf0" rx="18.917" ry="22.75"/><path d="m52.476 23.7a6.171 6.171 0 0 0 -9.3-5.33 7.887 7.887 0 0 0 -12.411 0 6.176 6.176 0 0 0 -8.533 8.3 6.17 6.17 0 0 0 11.048 3.564 7.884 7.884 0 0 0 7.392 0 6.169 6.169 0 0 0 11.042-3.568 6.144 6.144 0 0 0 .762-2.966z" fill="#4575bb"/></g></svg>